<svg width="17" height="17" viewBox="0 0 17 17" fill="none" xmlns="http://www.w3.org/2000/svg">
<path fill-rule="evenodd" clip-rule="evenodd" d="M8.33333 16.6667C3.73096 16.6667 0 12.9357 0 8.33333C0 3.73096 3.73096 0 8.33333 0C12.9357 0 16.6667 3.73096 16.6667 8.33333C16.6667 12.9357 12.9357 16.6667 8.33333 16.6667ZM8.33333 1.66667C4.65144 1.66667 1.66667 4.65144 1.66667 8.33333C1.66667 12.0152 4.65144 15 8.33333 15C12.0152 15 15 12.0152 15 8.33333C15 4.65144 12.0152 1.66667 8.33333 1.66667ZM8.33333 7.29167C8.90863 7.29167 9.375 7.75804 9.375 8.33333V11.6667C9.375 12.242 8.90863 12.7083 8.33333 12.7083C7.75804 12.7083 7.29167 12.242 7.29167 11.6667V8.33333C7.29167 7.75804 7.75804 7.29167 8.33333 7.29167ZM8.33333 4.16667C7.75804 4.16667 7.29167 4.63304 7.29167 5.20833C7.29167 5.78363 7.75804 6.25 8.33333 6.25C8.90863 6.25 9.375 5.78363 9.375 5.20833C9.375 4.63304 8.90863 4.16667 8.33333 4.16667Z" fill="#27AE60" style="fill:#27AE60;fill:color(display-p3 0.1529 0.6824 0.3765);fill-opacity:1;"/>
</svg>
