<svg width="17" height="14" viewBox="0 0 17 14" fill="none" xmlns="http://www.w3.org/2000/svg">
<path fill-rule="evenodd" clip-rule="evenodd" d="M2.5 0C1.11929 0 0 1.11929 0 2.5V10.8333C0 12.214 1.11929 13.3333 2.5 13.3333H14.1667C15.5474 13.3333 16.6667 12.214 16.6667 10.8333V2.5C16.6667 1.11929 15.5474 0 14.1667 0H2.5ZM1.74276 2.15162C1.87468 1.86536 2.16414 1.66667 2.5 1.66667H14.1667C14.5025 1.66667 14.792 1.86536 14.9239 2.15162L8.84495 6.87969C8.54403 7.11374 8.12264 7.11374 7.82172 6.87969L1.74276 2.15162ZM1.66667 4.20387V9.05413L4.67718 6.54537L1.66667 4.20387ZM1.73575 11.1661C1.86421 11.4607 2.15805 11.6667 2.5 11.6667H14.1667C14.5086 11.6667 14.8025 11.4607 14.9309 11.1661L10.6429 7.59272L9.86819 8.19528C8.96541 8.89744 7.70126 8.89744 6.79848 8.19528L6.02377 7.59272L1.73575 11.1661ZM15 9.05413V4.20387L11.9895 6.54537L15 9.05413Z" fill="#1C294D" fill-opacity="0.5" style="fill:#1C294D;fill:color(display-p3 0.1098 0.1608 0.3020);fill-opacity:0.5;"/>
</svg>
