<svg width="17" height="17" viewBox="0 0 17 17" fill="none" xmlns="http://www.w3.org/2000/svg">
<path fill-rule="evenodd" clip-rule="evenodd" d="M-4.19617e-05 6.25C-4.19617e-05 9.70178 2.79818 12.5 6.24996 12.5C7.69299 12.5 9.0218 12.011 10.0797 11.1896C10.1195 11.2739 10.1743 11.3529 10.244 11.4226L15.244 16.4226C15.5695 16.748 16.0971 16.748 16.4225 16.4226C16.748 16.0972 16.748 15.5695 16.4225 15.2441L11.4225 10.2441C11.3528 10.1744 11.2738 10.1196 11.1895 10.0797C12.0109 9.02184 12.5 7.69303 12.5 6.25C12.5 2.79822 9.70174 0 6.24996 0C2.79818 0 -4.19617e-05 2.79822 -4.19617e-05 6.25ZM1.66663 6.25C1.66663 3.71869 3.71865 1.66667 6.24996 1.66667C8.78126 1.66667 10.8333 3.71869 10.8333 6.25C10.8333 8.78131 8.78126 10.8333 6.24996 10.8333C3.71865 10.8333 1.66663 8.78131 1.66663 6.25Z" fill="white" style="fill:white;fill-opacity:1;"/>
</svg>
