<svg width="17" height="17" viewBox="0 0 17 17" fill="none" xmlns="http://www.w3.org/2000/svg">
<path fill-rule="evenodd" clip-rule="evenodd" d="M0.833333 0C0.373096 0 0 0.373096 0 0.833333V15.8333C0 16.2936 0.373096 16.6667 0.833333 16.6667H3.33333C3.79357 16.6667 4.16667 16.2936 4.16667 15.8333V4.16667H7.5V5.83333H6.66667C5.74619 5.83333 5 6.57953 5 7.5V12.5C5 13.4205 5.74619 14.1667 6.66667 14.1667H15C15.9205 14.1667 16.6667 13.4205 16.6667 12.5V7.5C16.6667 6.57953 15.9205 5.83333 15 5.83333H14.1667V4.16667H15.8333C16.2936 4.16667 16.6667 3.79357 16.6667 3.33333V0.833333C16.6667 0.373096 16.2936 0 15.8333 0H0.833333ZM13.3333 2.5H15V1.66667H1.66667V15H2.5V3.33333C2.5 2.8731 2.8731 2.5 3.33333 2.5H8.33333H13.3333ZM12.5 4.16667V5.83333H9.16667V4.16667H12.5ZM8.33333 12.5H13.3333H15V10.8333V9.16667V7.5H13.3333H8.33333H6.66667V9.16667V10.8333V12.5H8.33333Z" fill="#1C294D" fill-opacity="0.5" style="fill:#1C294D;fill:color(display-p3 0.1098 0.1608 0.3020);fill-opacity:0.5;"/>
</svg>
