<svg width="17" height="17" viewBox="0 0 17 17" fill="none" xmlns="http://www.w3.org/2000/svg">
<path fill-rule="evenodd" clip-rule="evenodd" d="M12.1548 0H4.51185C3.8488 0 3.21292 0.263392 2.74408 0.732233L0.732233 2.74408C0.263393 3.21292 0 3.8488 0 4.51184V5.83333V14.1667C0 15.5474 1.11929 16.6667 2.5 16.6667H14.1667C15.5474 16.6667 16.6667 15.5474 16.6667 14.1667V5.83333V4.51185C16.6667 3.8488 16.4033 3.21292 15.9344 2.74408L13.9226 0.732233C13.4537 0.263393 12.8179 0 12.1548 0ZM14.1667 3.33333L12.7441 1.91074C12.5878 1.75446 12.3758 1.66667 12.1548 1.66667H4.51185C4.29083 1.66667 4.07887 1.75446 3.92259 1.91074L2.5 3.33333H14.1667ZM1.66667 5.83333V14.1667C1.66667 14.6269 2.03976 15 2.5 15H14.1667C14.6269 15 15 14.6269 15 14.1667V5.83333C15 5.3731 14.6269 5 14.1667 5H2.5C2.03976 5 1.66667 5.3731 1.66667 5.83333ZM3.33333 12.5C3.33333 12.0398 3.70643 11.6667 4.16667 11.6667H5.83333C6.29357 11.6667 6.66667 12.0398 6.66667 12.5C6.66667 12.9602 6.29357 13.3333 5.83333 13.3333H4.16667C3.70643 13.3333 3.33333 12.9602 3.33333 12.5ZM4.16667 9.16667C3.70643 9.16667 3.33333 9.53976 3.33333 10C3.33333 10.4602 3.70643 10.8333 4.16667 10.8333H7.5C7.96024 10.8333 8.33333 10.4602 8.33333 10C8.33333 9.53976 7.96024 9.16667 7.5 9.16667H4.16667Z" fill="#1C294D" fill-opacity="0.5" style="fill:#1C294D;fill:color(display-p3 0.1098 0.1608 0.3020);fill-opacity:0.5;"/>
</svg>
