<svg width="17" height="17" viewBox="0 0 17 17" fill="none" xmlns="http://www.w3.org/2000/svg">
<path fill-rule="evenodd" clip-rule="evenodd" d="M3.58159 1.83069L3.58215 1.83139L3.58159 1.83069ZM3.61743 1.88697L5.28787 4.51908C5.08602 4.7086 4.86584 4.89631 4.62888 5.09834C4.42522 5.27197 4.20917 5.45617 3.98169 5.66117C3.41789 6.16927 3.30898 6.98644 3.67387 7.62239C5.60341 10.9853 8.23517 12.5155 9.41277 13.0649C10.1222 13.3959 10.893 13.1347 11.3221 12.5938L12.478 11.1367C12.478 11.1367 12.479 11.1359 12.4807 11.1356C12.4825 11.1353 12.4857 11.1356 12.4857 11.1356C12.4857 11.1356 12.4882 11.1362 12.4906 11.1376C13.1642 11.5493 14.1039 12.1088 14.9671 12.5824C14.8121 13.5093 14.4559 14.0493 14.0633 14.3794C13.651 14.726 13.1178 14.9084 12.5231 14.9743C11.3357 15.1058 10.1302 14.749 9.86287 14.6621C9.56787 14.5128 7.95046 13.6696 6.2225 12.3034C4.44069 10.8946 2.65403 9.017 1.97072 6.86362C1.47133 5.28985 1.65964 4.1824 2.05214 3.41851C2.43158 2.68004 3.04561 2.17882 3.61743 1.88697ZM3.01315 0.32917C3.80036 -0.0405772 4.61435 0.344935 4.9935 0.942366L6.74103 3.69594C7.09432 4.25262 7.11854 5.06639 6.54419 5.62386C6.29805 5.86277 5.95559 6.15642 5.63691 6.42967C5.46198 6.57967 5.29422 6.72352 5.15349 6.84879C6.81416 9.71243 9.03435 11.0373 10.0441 11.5218L11.1682 10.1048C11.6989 9.4358 12.6439 9.27943 13.3635 9.71925C14.0292 10.1261 14.9495 10.6737 15.7835 11.131C16.3397 11.4359 16.7375 12.0717 16.6248 12.7895C16.4223 14.0786 15.8935 15.0176 15.1399 15.6511C14.3989 16.2741 13.5161 16.5384 12.7075 16.628C11.117 16.8041 9.59567 16.3272 9.31787 16.235C9.24754 16.2117 9.18917 16.1871 9.12642 16.1555C8.82819 16.0055 7.07062 15.098 5.18474 13.6068C3.31847 12.1312 1.21377 9.99673 0.378765 7.3653C-0.234588 5.43238 -0.0531466 3.86512 0.565989 2.66015C1.17427 1.47631 2.15935 0.730197 3.01315 0.32917Z" fill="#1C294D" fill-opacity="0.5" style="fill:#1C294D;fill:color(display-p3 0.1098 0.1608 0.3020);fill-opacity:0.5;"/>
<path fill-rule="evenodd" clip-rule="evenodd" d="M10.5921 0.0760109C10.1731 -0.115618 9.67747 0.0675705 9.48518 0.485173C9.29288 0.902776 9.47671 1.39666 9.89576 1.58828C11.8344 2.47483 14.0534 4.14161 15.0673 6.44163C15.2528 6.8623 15.7453 7.05349 16.1674 6.86869C16.5895 6.68388 16.7814 6.19304 16.5959 5.77238C15.3574 2.96289 12.7394 1.05797 10.5921 0.0760109ZM9.97404 3.02752C9.56165 2.82204 9.06019 2.98862 8.854 3.39958C8.64781 3.81054 8.81496 4.31027 9.22734 4.51575C10.0118 4.90664 10.5547 5.27498 10.9931 5.71182C11.4314 6.14866 11.8011 6.68971 12.1933 7.47148C12.3995 7.88244 12.901 8.04902 13.3133 7.84354C13.7257 7.63805 13.8929 7.13833 13.6867 6.72736C13.2441 5.84524 12.7789 5.13837 12.1737 4.53527C11.5685 3.93218 10.8592 3.46859 9.97404 3.02752Z" fill="#1C294D" fill-opacity="0.5" style="fill:#1C294D;fill:color(display-p3 0.1098 0.1608 0.3020);fill-opacity:0.5;"/>
</svg>
