<svg width="17" height="17" viewBox="0 0 17 17" fill="none" xmlns="http://www.w3.org/2000/svg">
<path fill-rule="evenodd" clip-rule="evenodd" d="M0 8.33333C0 12.9357 3.73096 16.6667 8.33333 16.6667C12.9357 16.6667 16.6667 12.9357 16.6667 8.33333C16.6667 3.73096 12.9357 0 8.33333 0C3.73096 0 0 3.73096 0 8.33333ZM1.66667 8.33333C1.66667 4.65144 4.65144 1.66667 8.33333 1.66667C12.0152 1.66667 15 4.65144 15 8.33333C15 12.0152 12.0152 15 8.33333 15C4.65144 15 1.66667 12.0152 1.66667 8.33333ZM5.83333 9.16667C5.83333 8.70643 5.46024 8.33333 5 8.33333C4.53976 8.33333 4.16667 8.70643 4.16667 9.16667C4.16667 11.4679 6.03215 13.3333 8.33333 13.3333C10.6345 13.3333 12.5 11.4679 12.5 9.16667C12.5 8.70643 12.1269 8.33333 11.6667 8.33333C11.2064 8.33333 10.8333 8.70643 10.8333 9.16667C10.8333 10.5474 9.71405 11.6667 8.33333 11.6667C6.95262 11.6667 5.83333 10.5474 5.83333 9.16667ZM5 6.66667C5.46024 6.66667 5.83333 6.29357 5.83333 5.83333C5.83333 6.29357 6.20643 6.66667 6.66667 6.66667C7.1269 6.66667 7.5 6.29357 7.5 5.83333C7.5 4.91286 6.75381 4.16667 5.83333 4.16667C4.91286 4.16667 4.16667 4.91286 4.16667 5.83333C4.16667 6.29357 4.53976 6.66667 5 6.66667ZM10.8333 5.83333C10.8333 6.29357 10.4602 6.66667 10 6.66667C9.53976 6.66667 9.16667 6.29357 9.16667 5.83333C9.16667 4.91286 9.91286 4.16667 10.8333 4.16667C11.7538 4.16667 12.5 4.91286 12.5 5.83333C12.5 6.29357 12.1269 6.66667 11.6667 6.66667C11.2064 6.66667 10.8333 6.29357 10.8333 5.83333Z" fill="#1C294D" fill-opacity="0.5" style="fill:#1C294D;fill:color(display-p3 0.1098 0.1608 0.3020);fill-opacity:0.5;"/>
</svg>
