<svg width="17" height="15" viewBox="0 0 17 15" fill="none" xmlns="http://www.w3.org/2000/svg">
<path fill-rule="evenodd" clip-rule="evenodd" d="M0.833333 0C0.373096 0 0 0.373096 0 0.833333C0 1.29357 0.373096 1.66667 0.833333 1.66667V0.833333L0.833345 1.66667H0.833378H0.833511H0.83361H0.833732H0.833875H0.834041H0.834919H0.836144H0.836884H0.837286H0.837709H0.839613H0.841852H0.842463H0.843096H0.844421H0.876465H0.996094H1.40625H1.83481L3.77072 10.1847C3.87054 10.6239 4.30027 10.9025 4.7392 10.8186C4.78993 10.8283 4.84229 10.8333 4.89583 10.8333H13.3333C13.6807 10.8333 13.9916 10.6179 14.1136 10.2926L16.6136 3.62594C16.7096 3.37002 16.674 3.08332 16.5183 2.85867C16.3626 2.63403 16.1067 2.5 15.8333 2.5H3.73337L3.31261 0.648649C3.22638 0.269242 2.88908 0 2.5 0H1.40625H0.996094H0.876465H0.871376H0.86659H0.865441H0.864311H0.862109H0.857938H0.850539H0.849704H0.848889H0.848093H0.847318H0.846564H0.845829H0.844421H0.839613H0.837709H0.837286H0.836884H0.836144H0.834041H0.833732H0.83361H0.833511H0.833378H0.833345L0.833333 0.833333V0ZM4.11216 4.16667L5.24852 9.16667H12.7558L14.6308 4.16667H4.11216ZM6.66667 11.6667C5.74619 11.6667 5 12.4129 5 13.3333C5 14.2538 5.74619 15 6.66667 15C7.58714 15 8.33333 14.2538 8.33333 13.3333C8.33333 12.4129 7.58714 11.6667 6.66667 11.6667ZM10 13.3333C10 12.4129 10.7462 11.6667 11.6667 11.6667C12.5871 11.6667 13.3333 12.4129 13.3333 13.3333C13.3333 14.2538 12.5871 15 11.6667 15C10.7462 15 10 14.2538 10 13.3333Z" fill="#1C294D" fill-opacity="0.5" style="fill:#1C294D;fill:color(display-p3 0.1098 0.1608 0.3020);fill-opacity:0.5;"/>
</svg>
