<svg width="10" height="17" viewBox="0 0 10 17" fill="none" xmlns="http://www.w3.org/2000/svg">
<path fill-rule="evenodd" clip-rule="evenodd" d="M1.66667 2.51481C1.66667 2.05185 2.03976 1.67654 2.5 1.67654H7.5C7.96024 1.67654 8.33333 2.05185 8.33333 2.51481V14.5669C8.33333 14.9298 7.90607 15.1212 7.63793 14.8784L5.55747 12.9949C5.24055 12.708 4.75945 12.708 4.44253 12.9949L2.36207 14.8784C2.09393 15.1212 1.66667 14.9298 1.66667 14.5669V2.51481ZM2.5 0H7.5C8.88071 0 10 1.12592 10 2.51481V14.5669C10 16.3813 7.86366 17.3383 6.52299 16.1246L5 14.7458L3.47701 16.1246C2.13633 17.3383 0 16.3812 0 14.5669V2.51481C0 1.12592 1.11929 0 2.5 0Z" fill="#1C294D" fill-opacity="0.5" style="fill:#1C294D;fill:color(display-p3 0.1098 0.1608 0.3020);fill-opacity:0.5;"/>
</svg>
